<?xml version="1.0" standalone="no"?>
<!DOCTYPE svg PUBLIC "-//W3C//DTD SVG 20010904//EN"
 "http://www.w3.org/TR/2001/REC-SVG-20010904/DTD/svg10.dtd">
<svg version="1.0" xmlns="http://www.w3.org/2000/svg"
 width="143.000000pt" height="143.000000pt" viewBox="0 0 143.000000 143.000000"
 preserveAspectRatio="xMidYMid meet">
<metadata>
Created by potrace 1.14, written by Peter Selinger 2001-2017
</metadata>
<g transform="translate(0.000000,143.000000) scale(0.100000,-0.100000)"
fill="#000000" stroke="none">
<path d="M495 1365 c-134 -31 -214 -72 -290 -150 -64 -65 -100 -133 -125 -232
-21 -79 -22 -184 -5 -433 10 -153 65 -260 169 -331 27 -19 65 -47 85 -62 44
-35 127 -73 198 -92 56 -15 197 -21 243 -11 14 3 39 8 55 12 44 9 143 53 195
87 50 33 93 75 129 125 37 52 158 305 176 367 16 54 17 166 2 225 -16 59 -73
156 -138 233 -133 156 -188 193 -341 228 -208 48 -270 54 -353 34z m-176 -230
c-57 -57 -105 -100 -107 -95 -6 16 30 73 72 115 34 33 116 85 135 85 2 0 -43
-47 -100 -105z m479 -371 c-4 -24 -35 -41 -48 -28 -8 8 -7 16 5 28 21 21 47
21 43 0z m72 -572 c0 -11 -150 -40 -156 -30 -3 4 5 8 18 9 13 0 43 6 68 13 56
17 70 18 70 8z"/>
</g>
</svg>
